<?xml version="1.0" encoding="iso-8859-1"?>
<!-- Generator: Adobe Illustrator 18.0.0, SVG Export Plug-In . SVG Version: 6.00 Build 0)  -->
<!-- Originally created as mountain.svg -->
<!DOCTYPE svg PUBLIC "-//W3C//DTD SVG 1.1//EN" "http://www.w3.org/Graphics/SVG/1.1/DTD/svg11.dtd">
<svg version="1.1" id="Capa_1" xmlns="http://www.w3.org/2000/svg" xmlns:xlink="http://www.w3.org/1999/xlink" x="0px" y="0px"
	 viewBox="0 0 382.481 382.481" style="enable-background:new 0 0 382.481 382.481;" xml:space="preserve">
<g>
	<g id="XMLID_27_">
		<g>
			<polygon style="fill:#CCCCCC;" points="197.244,0.255 224.444,102.785 193.494,114.245 167.604,91.625 			"/>
			<polygon style="fill:#B3B3B3;" points="315.734,265.735 342.734,375.985 39.744,375.985 69.744,246.235 98.244,252.235 
				138.744,106.745 161.244,111.245 167.604,91.625 193.494,114.245 224.444,102.785 236.234,147.245 257.234,141.245 
				288.734,270.235 			"/>
		</g>
		<g>
		</g>
	</g>
	<polygon style="fill:#999999;" points="125.994,375.981 142.493,291.235 167.992,297.235 185.991,228.239 179.244,310.385 
		154.244,306.385 146.244,375.981 	"/>
	<polygon style="fill:#999999;" points="263.987,375.981 251.988,312.234 250.244,375.981 	"/>
	<path style="fill:#666666;" d="M380.732,382.481H1.75v0c0-7.18,5.82-13,13-13h352.982
		C374.911,369.481,380.732,375.302,380.732,382.481L380.732,382.481z"/>
</g>
<g>
</g>
<g>
</g>
<g>
</g>
<g>
</g>
<g>
</g>
<g>
</g>
<g>
</g>
<g>
</g>
<g>
</g>
<g>
</g>
<g>
</g>
<g>
</g>
<g>
</g>
<g>
</g>
<g>
</g>
</svg>
